<?xml version="1.0" standalone="no"?>
<!DOCTYPE svg PUBLIC "-//W3C//DTD SVG 20010904//EN"
        "http://www.w3.org/TR/2001/REC-SVG-20010904/DTD/svg10.dtd">
<svg version="1.0" xmlns="http://www.w3.org/2000/svg"
     width="50.000000pt" height="50.000000pt" viewBox="0 0 50.000000 50.000000"
     preserveAspectRatio="xMidYMid meet">

    <g transform="translate(0.000000,50.000000) scale(0.100000,-0.100000)"
       fill="blue" stroke="none">
        <path d="M190 445 c0 -19 5 -35 10 -35 6 0 10 16 10 35 0 19 -4 35 -10 35 -5
0 -10 -16 -10 -35z"/>
        <path d="M240 255 c-118 -118 -211 -218 -207 -222 8 -7 437 415 437 429 0 5
-3 8 -8 8 -4 0 -104 -97 -222 -215z"/>
        <path d="M70 422 c0 -14 39 -46 47 -39 3 4 -2 16 -12 27 -19 21 -35 26 -35 12z"/>
        <path d="M295 410 c-10 -11 -15 -23 -12 -27 8 -7 47 25 47 39 0 14 -16 9 -35
-12z"/>
        <path d="M139 361 c-34 -35 -38 -78 -10 -112 l20 -24 63 63 63 63 -24 20 c-34
28 -77 24 -112 -10z"/>
        <path d="M432 324 c-11 -12 -10 -17 2 -30 15 -14 17 -14 32 0 14 14 14 18 0
31 -18 18 -18 18 -34 -1z"/>
        <path d="M20 300 c0 -5 16 -10 35 -10 19 0 35 5 35 10 0 6 -16 10 -35 10 -19
0 -35 -4 -35 -10z"/>
        <path d="M304 216 c-26 -26 -34 -42 -34 -71 0 -29 8 -45 34 -71 26 -26 42 -34
71 -34 46 0 105 53 105 94 l0 26 -20 -20 c-26 -26 -64 -26 -90 0 -11 11 -20
31 -20 45 0 14 9 34 20 45 l20 20 -26 0 c-16 0 -39 -13 -60 -34z"/>
        <path d="M85 200 c-10 -11 -15 -23 -12 -27 8 -7 47 25 47 39 0 14 -16 9 -35
-12z"/>
        <path d="M202 64 c-11 -12 -10 -17 2 -30 15 -14 17 -14 32 0 14 14 14 18 0 31
-18 18 -18 18 -34 -1z"/>
    </g>
</svg>
